# xmcd
#
# Track frame offsets:
#	150
#	26539
#	59796
#	99126
#	129038
#	154015
#	183683
#	214208
#	241253
#	269819
#	304985
#
# Disc length: 4450 seconds
# Revision: 0
# Processed by: cddbd v1.5.2PL0 Copyright (c) Steve Scherf et al.
# Submitted via: dBpowerAMP V12.0
#
DISCID=9b11600b
DTITLE=Hilary Mantel - Wölfe CD3
DYEAR=1900
DGENRE=
TTITLE0=022
TTITLE1=023
TTITLE2=024
TTITLE3=025
TTITLE4=026
TTITLE5=027
TTITLE6=028
TTITLE7=029
TTITLE8=030
TTITLE9=031
TTITLE10=032
EXTD=
EXTT0=
EXTT1=
EXTT2=
EXTT3=
EXTT4=
EXTT5=
EXTT6=
EXTT7=
EXTT8=
EXTT9=
EXTT10=
PLAYORDER=
